<svg width="168" height="259" viewBox="0 0 168 259" fill="none" xmlns="http://www.w3.org/2000/svg">
<path d="M95.4984 105.613C42.6918 103.501 13.6482 132.896 5.72716 147.858C-0.609692 126.735 -0.433639 110.894 0.446493 105.613C-3.77804 71.8167 62.0542 52.8065 95.4984 47.526C118.733 49.6382 143.905 16.7221 153.586 0C195.831 86.6029 132.463 106.493 95.4984 105.613Z" fill="#F54749"/>
<path d="M66.4552 174.262C26.3222 191.16 25.09 237.63 29.4906 258.753C8.36789 229.182 8.36793 190.104 11.0083 174.262C21.5696 142.579 52.3735 129.377 66.4552 126.736C104.476 118.287 117.502 133.777 119.262 142.578C123.486 167.926 82.2972 168.982 66.4552 174.262Z" fill="#B40002"/>
</svg>
