<svg width="959" height="782" viewBox="0 0 959 782" fill="none" xmlns="http://www.w3.org/2000/svg">
<path d="M891.426 75.1981L844.97 69.1387H844.634L843.287 88.3268L890.752 95.7327L891.426 75.1981Z" fill="#992635"/>
<path d="M920.376 83.6906L876.845 77.5544H876.529L875.267 96.9854L919.745 104.485L920.376 83.6906Z" fill="#FF3366"/>
<path d="M891.426 75.198L876.614 77.5544L891.089 79.5742L891.426 75.198Z" fill="#EF92AA"/>
<path d="M910.277 94.0495L920.376 83.6139L919.703 104.485L910.277 94.0495Z" fill="#FDFFF6"/>
<path d="M839.637 62.0693C839.637 65.0149 842.025 67.4027 844.97 67.4027C847.916 67.4027 850.304 65.0149 850.304 62.0693C850.304 59.1238 847.916 56.736 844.97 56.736C842.025 56.736 839.637 59.1238 839.637 62.0693ZM837.888 167.849L845.967 62.1455L843.973 61.9931L835.894 167.696L837.888 167.849Z" fill="#891D2A"/>
<path d="M838.574 126.03H874.594C877.557 127.107 878.521 129.621 878.634 130.743L882 144.545C881.192 149.123 878.521 146.901 877.287 145.218L874.257 133.099L869.881 176.861H867.861L864.495 170.802L865.505 152.287L848.673 154.644L852.376 167.099L846.99 168.109L843.466 158.71C843.728 159.63 843.288 158.35 842.95 157.337L843.466 158.71C843.379 158.408 843.217 157.867 842.95 157C841.873 153.499 843.848 151.502 844.97 150.941L855.743 146.564V129.396H838.574C836.689 128.05 837.789 126.591 838.574 126.03Z" fill="#393939"/>
<path d="M860.455 139.158L864.832 128.723L866.515 140.505L863.485 142.525L860.455 139.158Z" fill="white"/>
<path d="M603.941 294.683L818.04 698.98H393.881L603.941 294.683Z" fill="#0A3E6E"/>
<path d="M719.743 698.98L602.594 292.327L826.119 698.98H719.743Z" fill="#083359"/>
<path d="M603.941 698.307V297.04L503.624 698.307H603.941Z" fill="#083359"/>
<path d="M441.683 498.347L556.475 698.98H325.881L441.683 498.347Z" fill="#083359"/>
<path d="M505.644 699.653L441.01 498.683L561.525 699.653H505.644Z" fill="#0A3E6E"/>
<path d="M440.337 698.98V497.673L378.396 698.98H440.337Z" fill="#0A3E6E"/>
<path d="M603.604 293.673L648.376 374.802H561.525L603.604 293.673Z" fill="#B8CFFF"/>
<path d="M441.347 498.347L471.307 549.852H411.386L441.347 498.347Z" fill="#B8CFFF"/>
<path d="M471.691 390.801L471.636 390.833L471.583 390.867C420.407 423.447 389.056 456.264 372.445 488.201C355.776 520.249 354.094 551.145 361.783 579.395C375.439 629.563 418.475 670.901 457.965 696.5H4.23039C16.7317 660.777 42.628 620.901 70.6935 584.901C100.232 547.012 131.854 513.819 151.902 494.885L152.187 494.616L152.421 494.302C170.773 469.657 200.51 445.884 237.018 423.607C273.468 401.366 316.371 380.794 360.758 362.449C449.538 325.757 543.898 298.12 603.635 283.913L603.647 283.91L603.659 283.907C722.306 255.006 873.995 239.766 945.805 234.95C941.313 235.775 935.768 236.884 929.43 238.212C915.695 241.09 898.132 245.015 879.276 249.346C841.565 258.007 798.598 268.311 770.533 275.159C631.077 308.133 513.33 365.908 471.691 390.801Z" fill="#999999" stroke="white" stroke-width="9"/>
<path d="M956.059 235.099C702.686 252.828 197.018 369.079 201.326 692.248" stroke="white" stroke-width="9" stroke-dasharray="28 28"/>
<circle cx="866.515" cy="116.604" r="8.07921" fill="#393939"/>
<path d="M959.426 336.762V698.98H818.04L684.733 451.891L857.089 160.366L959.426 336.762Z" fill="#083359"/>
<path d="M958.079 697.634L858.436 160.366L958.079 335.416V697.634Z" fill="#0A3E6E"/>
<path d="M858.436 698.98V160.366L776.297 619.535L818.376 698.98H858.436Z" fill="#0A3E6E"/>
<path d="M716.376 511.812L684.059 451.218L857.762 161.713L716.376 511.812Z" fill="#0A3E6E"/>
<path d="M857.763 159.02L903.881 240.148H808.951L857.763 159.02Z" fill="#B8CFFF"/>
<path d="M205.089 480.743C211.184 480.743 216.403 478.252 220.746 473.27C225.083 468.297 227.251 462.316 227.251 455.327C227.251 448.337 225.083 442.352 220.746 437.37C216.403 432.397 211.184 429.911 205.089 429.911C198.995 429.911 193.779 432.397 189.443 437.37C185.099 442.352 182.927 448.337 182.927 455.327C182.927 462.316 185.099 468.297 189.443 473.27C193.779 478.252 198.995 480.743 205.089 480.743ZM205.089 607.822C175.355 578.805 153.149 551.852 138.471 526.961C123.785 502.079 116.442 479.048 116.442 457.868C116.442 426.098 125.355 400.789 143.18 381.938C160.998 363.088 181.635 353.663 205.089 353.663C228.544 353.663 249.18 363.088 266.998 381.938C284.823 400.789 293.736 426.098 293.736 457.868C293.736 479.048 286.397 502.079 271.718 526.961C257.032 551.852 234.823 578.805 205.089 607.822Z" fill="#85B627"/>
<ellipse cx="200.393" cy="455.495" rx="30.8209" ry="37.703" fill="#85B627"/>
<ellipse cx="205.089" cy="442.366" rx="66.3168" ry="66.3168" fill="white"/>
<path d="M230.6 461.56C229.56 458.36 226.56 456 223 456H219V444C219 442.939 218.579 441.922 217.828 441.172C217.078 440.421 216.061 440 215 440H191V432H199C200.061 432 201.078 431.579 201.828 430.828C202.579 430.078 203 429.061 203 428V420H211C213.122 420 215.157 419.157 216.657 417.657C218.157 416.157 219 414.122 219 412V410.36C223.786 412.289 228.033 415.35 231.378 419.279C234.722 423.209 237.065 427.89 238.205 432.923C239.346 437.955 239.249 443.189 237.925 448.177C236.6 453.164 234.087 457.756 230.6 461.56ZM203 471.72C187.2 469.76 175 456.32 175 440C175 437.52 175.32 435.12 175.84 432.84L195 452V456C195 458.122 195.843 460.157 197.343 461.657C198.843 463.157 200.878 464 203 464M207 400C201.747 400 196.546 401.035 191.693 403.045C186.84 405.055 182.43 408.001 178.716 411.716C171.214 419.217 167 429.391 167 440C167 450.609 171.214 460.783 178.716 468.284C182.43 471.999 186.84 474.945 191.693 476.955C196.546 478.965 201.747 480 207 480C217.609 480 227.783 475.786 235.284 468.284C242.786 460.783 247 450.609 247 440C247 434.747 245.965 429.546 243.955 424.693C241.945 419.84 238.999 415.43 235.284 411.716C231.57 408.001 227.16 405.055 222.307 403.045C217.454 401.035 212.253 400 207 400Z" fill="#85B627"/>
<path d="M414.098 281.198C419.237 281.198 423.638 279.098 427.301 274.897C430.958 270.703 432.786 265.66 432.786 259.766C432.786 253.872 430.958 248.825 427.301 244.624C423.638 240.43 419.237 238.333 414.098 238.333C408.959 238.333 404.561 240.43 400.904 244.624C397.241 248.825 395.41 253.872 395.41 259.766C395.41 265.66 397.241 270.703 400.904 274.897C404.561 279.098 408.959 281.198 414.098 281.198ZM414.098 388.36C389.025 363.891 370.299 341.162 357.921 320.173C345.537 299.191 339.345 279.769 339.345 261.909C339.345 235.119 346.861 213.776 361.892 197.88C376.918 181.984 394.32 174.036 414.098 174.036C433.876 174.036 451.278 181.984 466.304 197.88C481.335 213.776 488.851 235.119 488.851 261.909C488.851 279.769 482.662 299.191 470.284 320.173C457.9 341.162 439.171 363.891 414.098 388.36Z" fill="#FCA822"/>
<ellipse cx="410.138" cy="259.908" rx="25.9903" ry="31.7937" fill="#FCA822"/>
<ellipse cx="414.098" cy="248.837" rx="55.9228" ry="55.9228" fill="white"/>
<g clip-path="url(#clip0_220_13)">
<path d="M449.828 275.312H442.797V253.935C447.081 256.226 447.21 260.87 447.21 260.87C448.027 254.402 445.052 251.914 442.73 250.953C442.695 250.69 442.645 250.429 442.58 250.172C447.291 246.332 451 247.929 451 247.929C446.784 242.835 443.186 245.079 441.14 247.353C440.482 246.567 439.66 245.935 438.731 245.502C437.803 245.069 436.79 244.844 435.766 244.844H429.906V235.469C429.906 231.592 426.753 228.438 422.875 228.438H421.703V221.406C421.703 220.144 421.081 218.641 420.188 217.749L418.329 215.889C417.438 214.998 415.933 214.375 414.672 214.375V212.685C417.796 214.482 418.577 210.888 421.703 212.685V206.691C418.577 204.895 417.796 208.489 414.672 206.691V206.172C414.672 205.527 414.143 205 413.5 205C412.854 205 412.328 205.527 412.328 206.172V214.375C411.067 214.375 409.562 214.998 408.671 215.889L406.812 217.749C405.919 218.641 405.297 220.144 405.297 221.406V228.438H404.125C400.247 228.438 397.094 231.592 397.094 235.469V244.844H391.234C390.209 244.844 389.197 245.069 388.268 245.502C387.339 245.936 386.516 246.567 385.858 247.353C383.814 245.079 380.215 242.834 376 247.929C376 247.929 379.708 246.332 384.421 250.175C384.356 250.431 384.306 250.691 384.271 250.953C381.95 251.914 378.973 254.402 379.791 260.87C379.791 260.87 379.919 256.224 384.204 253.935V275.312H377.172C376.526 275.312 376 275.841 376 276.484V278.828C376 279.474 376.526 280 377.172 280H449.828C450.471 280 451 279.474 451 278.828V276.484C451 275.841 450.471 275.312 449.828 275.312ZM439.314 253.093C439.51 253.038 439.684 252.973 439.892 252.925C440.286 252.999 440.649 253.095 441.002 253.199C441.089 253.943 441.188 254.89 441.276 256.069H439.252C439.284 255.107 439.304 254.109 439.314 253.093ZM439.243 256.478C440.13 257.602 440.875 257.211 441.321 256.73C441.388 257.71 441.443 258.817 441.484 260.051H439.076C439.142 258.904 439.199 257.72 439.243 256.478ZM438.109 253.475C438.12 253.472 438.129 253.468 438.139 253.463C438.109 255.593 438.033 257.608 437.931 259.498C437.832 259.321 437.688 259.173 437.514 259.069C437.339 258.965 437.14 258.909 436.938 258.906H432.673C432.943 257.809 433.552 256.536 434.82 255.391H436.938C437.581 255.391 438.109 254.864 438.109 254.219V253.475ZM388.891 253.477V254.219C388.891 254.864 389.417 255.391 390.062 255.391H392.18C393.447 256.536 394.056 257.809 394.326 258.906H390.062C389.859 258.909 389.661 258.965 389.486 259.069C389.311 259.172 389.167 259.32 389.068 259.497C388.964 257.609 388.891 255.595 388.86 253.464L388.891 253.477ZM385.997 253.2C386.349 253.095 386.712 252.999 387.105 252.926C387.313 252.977 387.488 253.039 387.685 253.094C387.696 254.11 387.715 255.108 387.745 256.071H385.722C385.811 254.891 385.908 253.945 385.997 253.2ZM385.677 256.73C386.126 257.211 386.871 257.602 387.757 256.476C387.798 257.719 387.856 258.902 387.924 260.051H385.512C385.553 258.817 385.611 257.71 385.677 256.73ZM385.495 260.628C386.003 261.125 386.886 261.598 387.953 260.573C388.027 261.788 388.111 262.938 388.203 264.029H385.457C385.455 262.816 385.466 261.675 385.495 260.628ZM385.459 264.573C386.001 265.121 387.009 265.683 388.22 264.262C388.338 265.619 388.462 266.871 388.587 268.008H385.534C385.495 266.864 385.47 265.719 385.459 264.573ZM385.547 268.343C386.051 268.872 387.204 269.719 388.649 268.557C388.729 269.255 388.811 269.891 388.889 270.493V270.625C388.889 270.716 388.921 270.798 388.942 270.886C388.996 271.28 389.045 271.646 389.097 271.989H385.73C385.653 270.775 385.592 269.559 385.547 268.343ZM385.975 275.312C385.884 274.241 385.807 273.209 385.743 272.205C386.191 272.724 387.497 273.893 389.153 272.368C389.434 274.258 389.644 275.312 389.644 275.312H385.975ZM401.781 261.324L400.333 262.422L400.882 260.635L399.438 259.526L401.225 259.519L401.781 257.734L402.338 259.519L404.125 259.526L402.681 260.634L403.23 262.422L401.781 261.324ZM404.125 278.828L405.687 277.656H421.313L422.875 278.828H404.125ZM409.089 262.422L407.641 261.324L406.192 262.422L406.742 260.635L405.297 259.526L407.084 259.519L407.641 257.734L408.197 259.519L409.984 259.526L408.541 260.634L409.089 262.422ZM408.812 263.594V275.312H405.297V263.594H408.812ZM414.948 262.422L413.5 261.324L412.052 262.422L412.601 260.635L411.156 259.526L412.943 259.519L413.5 257.734L414.057 259.519L415.844 259.526L414.4 260.634L414.948 262.422ZM414.672 263.594V275.312H412.328V263.594H414.672ZM420.808 262.422L419.359 261.324L417.911 262.422L418.461 260.635L417.016 259.526L418.803 259.519L419.359 257.734L419.916 259.519L421.703 259.526L420.259 260.634L420.808 262.422ZM421.703 263.594V275.312H418.188V263.594H421.703ZM423.77 262.422L424.32 260.635L422.875 259.526L424.662 259.519L425.219 257.734L425.775 259.519L427.562 259.526L426.119 260.634L426.667 262.422L425.219 261.324L423.77 262.422ZM436.938 267.109H432.25C431.604 267.109 431.078 267.638 431.078 268.281V270.625C431.078 271.271 431.604 271.797 432.25 271.797H436.742C436.588 272.896 436.409 273.992 436.205 275.084L436.158 275.312H426.391V263.594H428.734V256.562H398.266V263.594H400.609V275.312H390.838L390.793 275.084C390.589 273.993 390.41 272.897 390.257 271.797H394.75C395.393 271.797 395.922 271.271 395.922 270.625V268.281C395.922 267.638 395.393 267.109 394.75 267.109H390.062C389.932 267.113 389.804 267.139 389.683 267.187C389.544 265.895 389.423 264.602 389.32 263.307C389.525 263.488 389.789 263.59 390.062 263.594H394.75C395.393 263.594 395.922 263.068 395.922 262.422V260.078C395.922 259.593 395.62 259.175 395.198 258.998C395.405 257.602 395.222 256.404 394.785 255.384C395.411 255.364 395.922 254.85 395.922 254.219V251.875C395.922 251.232 395.393 250.703 394.75 250.703H390.062C389.897 250.704 389.733 250.742 389.583 250.813C389.454 250.758 389.323 250.701 389.2 250.65C394.915 245.281 399.438 249.303 399.438 249.303C398.839 248.492 398.119 247.779 397.304 247.188H399.438V235.469C399.438 232.891 401.546 230.781 404.125 230.781H407.641V221.406C407.641 220.762 408.013 219.862 408.469 219.405L410.328 217.547C410.784 217.091 411.682 216.719 412.328 216.719H414.672C415.315 216.719 416.216 217.091 416.672 217.548L418.531 219.406C418.987 219.862 419.359 220.762 419.359 221.406V230.781H422.875C425.452 230.781 427.562 232.891 427.562 235.469V247.188H429.695C428.88 247.779 428.16 248.492 427.562 249.303C427.562 249.303 432.084 245.281 437.798 250.65C437.675 250.701 437.543 250.758 437.416 250.813C437.266 250.741 437.103 250.704 436.938 250.703H432.25C431.604 250.703 431.078 251.232 431.078 251.875V254.219C431.08 254.522 431.199 254.813 431.411 255.03C431.623 255.248 431.91 255.374 432.214 255.384C431.777 256.404 431.595 257.602 431.8 258.998C431.378 259.175 431.078 259.593 431.078 260.078V262.422C431.078 263.068 431.604 263.594 432.25 263.594H436.938C437.211 263.589 437.474 263.488 437.679 263.308C437.576 264.603 437.455 265.896 437.317 267.188C437.196 267.139 437.068 267.113 436.938 267.109ZM441.023 275.312H437.354C437.354 275.312 437.563 274.258 437.843 272.369C439.5 273.893 440.806 272.724 441.255 272.204C441.19 273.209 441.114 274.241 441.023 275.312ZM441.268 271.989H437.901L438.052 270.904C438.077 270.812 438.109 270.723 438.109 270.625V270.481C438.188 269.883 438.269 269.249 438.35 268.553C439.793 269.718 440.946 268.871 441.45 268.342C441.407 269.506 441.348 270.716 441.268 271.989ZM441.463 268.009H438.409C438.537 266.871 438.662 265.62 438.777 264.261C439.988 265.682 440.997 265.123 441.537 264.577C441.53 265.659 441.504 266.802 441.463 268.009ZM438.796 264.029C438.887 262.936 438.973 261.788 439.048 260.57C440.113 261.596 440.997 261.125 441.504 260.63C441.531 261.677 441.543 262.816 441.539 264.029H438.796Z" fill="#FCA822"/>
<path d="M400.749 254.713V252.338H402.9V254.713H404.202V249.039H402.9V251.218H400.749V249.039H399.438V254.713H400.749ZM408.746 248.945C407.041 248.945 405.936 250.218 405.936 251.916C405.936 253.534 406.938 254.805 408.652 254.805C410.339 254.805 411.49 253.676 411.49 251.818C411.49 250.25 410.52 248.945 408.746 248.945ZM408.721 253.786C407.847 253.786 407.316 253.004 407.316 251.891C407.316 250.791 407.829 249.964 408.712 249.964C409.615 249.964 410.11 250.84 410.11 251.859C410.11 252.962 409.605 253.786 408.721 253.786ZM412.527 250.115H414.079V254.713H415.388V250.115H416.968V249.039H412.527V250.115ZM419.833 252.312H421.957V251.268H419.833V250.093H422.085V249.039H418.517V254.713H422.205V253.66H419.833V252.312ZM425.264 249.039H423.953V254.713H427.562V253.635H425.264V249.039ZM415.844 233.125H411.156C410.511 233.125 409.984 233.652 409.984 234.297V243.672C409.984 244.318 410.511 244.844 411.156 244.844H415.844C416.487 244.844 417.016 244.318 417.016 243.672V234.297C417.016 233.652 416.487 233.125 415.844 233.125ZM411.156 228.438C411.8 228.438 412.328 227.91 412.328 227.266V222.578C412.328 221.934 411.8 221.406 411.156 221.406C410.511 221.406 409.984 221.934 409.984 222.578V227.266C409.984 227.91 410.511 228.438 411.156 228.438ZM415.844 221.406C415.198 221.406 414.672 221.934 414.672 222.578V227.266C414.672 227.91 415.198 228.438 415.844 228.438C416.487 228.438 417.016 227.91 417.016 227.266V222.578C417.016 221.934 416.487 221.406 415.844 221.406ZM402.953 237.812H406.469C407.112 237.812 407.641 237.286 407.641 236.641V234.297C407.641 233.652 407.112 233.125 406.469 233.125H402.953C402.307 233.125 401.781 233.652 401.781 234.297V236.641C401.781 237.285 402.307 237.812 402.953 237.812ZM407.641 243.672V241.328C407.641 240.685 407.112 240.156 406.469 240.156H402.953C402.307 240.156 401.781 240.685 401.781 241.328V243.672C401.781 244.318 402.307 244.844 402.953 244.844H406.469C407.112 244.844 407.641 244.318 407.641 243.672ZM420.531 237.812H424.047C424.69 237.812 425.219 237.286 425.219 236.641V234.297C425.219 233.652 424.69 233.125 424.047 233.125H420.531C419.886 233.125 419.359 233.652 419.359 234.297V236.641C419.359 237.285 419.886 237.812 420.531 237.812ZM420.531 244.844H424.047C424.69 244.844 425.219 244.318 425.219 243.672V241.328C425.219 240.685 424.69 240.156 424.047 240.156H420.531C419.886 240.156 419.359 240.685 419.359 241.328V243.672C419.359 244.318 419.886 244.844 420.531 244.844Z" fill="#FCA822"/>
</g>
<path d="M671.783 192.743C676.236 192.743 680.05 190.923 683.224 187.283C686.392 183.649 687.976 179.279 687.976 174.172C687.976 169.065 686.392 164.691 683.224 161.051C680.05 157.418 676.236 155.601 671.783 155.601C667.33 155.601 663.519 157.418 660.351 161.051C657.177 164.691 655.59 169.065 655.59 174.172C655.59 179.279 657.177 183.649 660.351 187.283C663.519 190.923 667.33 192.743 671.783 192.743ZM671.783 285.597C650.057 264.396 633.832 244.701 623.106 226.514C612.376 208.333 607.01 191.505 607.01 176.029C607.01 152.815 613.523 134.321 626.547 120.548C639.567 106.775 654.645 99.8878 671.783 99.8878C688.921 99.8878 704 106.775 717.019 120.548C730.044 134.321 736.556 152.815 736.556 176.029C736.556 191.505 731.193 208.333 720.468 226.514C709.737 244.701 693.509 264.396 671.783 285.597Z" fill="#6755A1"/>
<ellipse cx="668.351" cy="174.295" rx="22.5204" ry="27.549" fill="#6755A1"/>
<ellipse cx="671.783" cy="164.702" rx="48.4567" ry="48.4567" fill="white"/>
<path d="M672 143.062C674.166 143.062 676.243 143.938 677.775 145.497C679.306 147.056 680.167 149.17 680.167 151.375C680.167 153.58 679.306 155.694 677.775 157.253C676.243 158.812 674.166 159.688 672 159.688C669.834 159.688 667.757 158.812 666.225 157.253C664.694 155.694 663.833 153.58 663.833 151.375C663.833 149.17 664.694 147.056 666.225 145.497C667.757 143.938 669.834 143.062 672 143.062ZM655.667 149C656.973 149 658.187 149.356 659.237 149.998C658.887 153.394 659.867 156.766 661.873 159.403C660.707 161.683 658.373 163.25 655.667 163.25C653.81 163.25 652.03 162.499 650.717 161.163C649.404 159.827 648.667 158.015 648.667 156.125C648.667 154.235 649.404 152.423 650.717 151.087C652.03 149.751 653.81 149 655.667 149ZM688.333 149C690.19 149 691.97 149.751 693.283 151.087C694.596 152.423 695.333 154.235 695.333 156.125C695.333 158.015 694.596 159.827 693.283 161.163C691.97 162.499 690.19 163.25 688.333 163.25C685.627 163.25 683.293 161.683 682.127 159.403C684.161 156.729 685.105 153.361 684.763 149.998C685.813 149.356 687.027 149 688.333 149ZM656.833 173.344C656.833 168.427 663.623 164.438 672 164.438C680.377 164.438 687.167 168.427 687.167 173.344V177.5H656.833V173.344ZM644 177.5V173.938C644 170.636 648.41 167.858 654.383 167.05C653.007 168.665 652.167 170.898 652.167 173.344V177.5H644ZM700 177.5H691.833V173.344C691.833 170.898 690.993 168.665 689.617 167.05C695.59 167.858 700 170.636 700 173.938V177.5Z" fill="#6755A1"/>
<path d="M395.039 139.708V151.523H393.101V146.355H387.542V151.523H385.604V139.708H387.542V144.774H393.101V139.708H395.039ZM403.32 151.642C402.22 151.642 401.206 151.387 400.277 150.877C399.359 150.355 398.628 149.636 398.084 148.718C397.551 147.788 397.285 146.746 397.285 145.59C397.285 144.434 397.551 143.397 398.084 142.479C398.628 141.561 399.359 140.847 400.277 140.337C401.206 139.815 402.22 139.555 403.32 139.555C404.43 139.555 405.445 139.815 406.363 140.337C407.292 140.847 408.023 141.561 408.556 142.479C409.088 143.397 409.355 144.434 409.355 145.59C409.355 146.746 409.088 147.788 408.556 148.718C408.023 149.636 407.292 150.355 406.363 150.877C405.445 151.387 404.43 151.642 403.32 151.642ZM403.32 149.959C404.102 149.959 404.799 149.783 405.411 149.432C406.023 149.069 406.499 148.559 406.839 147.902C407.19 147.233 407.366 146.462 407.366 145.59C407.366 144.717 407.19 143.952 406.839 143.295C406.499 142.637 406.023 142.133 405.411 141.782C404.799 141.43 404.102 141.255 403.32 141.255C402.538 141.255 401.841 141.43 401.229 141.782C400.617 142.133 400.135 142.637 399.784 143.295C399.444 143.952 399.274 144.717 399.274 145.59C399.274 146.462 399.444 147.233 399.784 147.902C400.135 148.559 400.617 149.069 401.229 149.432C401.841 149.783 402.538 149.959 403.32 149.959ZM419.235 139.708V141.289H416.09V151.523H414.152V141.289H410.99V139.708H419.235ZM423.475 141.272V144.74H427.555V146.321H423.475V149.942H428.065V151.523H421.537V139.691H428.065V141.272H423.475ZM432.73 149.959H436.725V151.523H430.792V139.708H432.73V149.959ZM442.579 151.642C441.786 151.642 441.072 151.506 440.437 151.234C439.802 150.95 439.304 150.554 438.941 150.044C438.578 149.534 438.397 148.939 438.397 148.259H440.471C440.516 148.769 440.715 149.188 441.066 149.517C441.429 149.845 441.933 150.01 442.579 150.01C443.248 150.01 443.769 149.851 444.143 149.534C444.517 149.205 444.704 148.786 444.704 148.276C444.704 147.879 444.585 147.556 444.347 147.307C444.12 147.057 443.831 146.865 443.48 146.729C443.14 146.593 442.664 146.445 442.052 146.287C441.281 146.083 440.652 145.879 440.165 145.675C439.689 145.459 439.281 145.131 438.941 144.689C438.601 144.247 438.431 143.657 438.431 142.921C438.431 142.241 438.601 141.646 438.941 141.136C439.281 140.626 439.757 140.235 440.369 139.963C440.981 139.691 441.689 139.555 442.494 139.555C443.639 139.555 444.574 139.844 445.299 140.422C446.036 140.988 446.444 141.77 446.523 142.768H444.381C444.347 142.337 444.143 141.969 443.769 141.663C443.395 141.357 442.902 141.204 442.29 141.204C441.735 141.204 441.281 141.345 440.93 141.629C440.579 141.912 440.403 142.32 440.403 142.853C440.403 143.215 440.511 143.516 440.726 143.754C440.953 143.98 441.236 144.162 441.576 144.298C441.916 144.434 442.381 144.581 442.97 144.74C443.752 144.955 444.387 145.17 444.874 145.386C445.373 145.601 445.792 145.935 446.132 146.389C446.483 146.831 446.659 147.426 446.659 148.174C446.659 148.774 446.495 149.341 446.166 149.874C445.849 150.406 445.378 150.837 444.755 151.166C444.143 151.483 443.418 151.642 442.579 151.642Z" fill="#B37513"/>
<path d="M620.779 77.0095C620.779 75.8535 621.046 74.8165 621.578 73.8985C622.122 72.9805 622.853 72.2665 623.771 71.7565C624.701 71.2352 625.715 70.9745 626.814 70.9745C628.072 70.9745 629.189 71.2862 630.163 71.9095C631.149 72.5215 631.863 73.3942 632.305 74.5275H629.976C629.67 73.9042 629.245 73.4395 628.701 73.1335C628.157 72.8275 627.528 72.6745 626.814 72.6745C626.032 72.6745 625.335 72.8502 624.723 73.2015C624.111 73.5528 623.63 74.0572 623.278 74.7145C622.938 75.3718 622.768 76.1368 622.768 77.0095C622.768 77.8822 622.938 78.6472 623.278 79.3045C623.63 79.9618 624.111 80.4718 624.723 80.8345C625.335 81.1858 626.032 81.3615 626.814 81.3615C627.528 81.3615 628.157 81.2085 628.701 80.9025C629.245 80.5965 629.67 80.1318 629.976 79.5085H632.305C631.863 80.6418 631.149 81.5145 630.163 82.1265C629.189 82.7385 628.072 83.0445 626.814 83.0445C625.704 83.0445 624.689 82.7895 623.771 82.2795C622.853 81.7582 622.122 81.0385 621.578 80.1205C621.046 79.2025 620.779 78.1655 620.779 77.0095ZM636.835 71.1275V78.6585C636.835 79.5538 637.067 80.2282 637.532 80.6815C638.008 81.1348 638.665 81.3615 639.504 81.3615C640.354 81.3615 641.011 81.1348 641.476 80.6815C641.952 80.2282 642.19 79.5538 642.19 78.6585V71.1275H644.128V78.6245C644.128 79.5878 643.918 80.4038 643.499 81.0725C643.079 81.7412 642.518 82.2398 641.816 82.5685C641.113 82.8972 640.337 83.0615 639.487 83.0615C638.637 83.0615 637.86 82.8972 637.158 82.5685C636.466 82.2398 635.917 81.7412 635.509 81.0725C635.101 80.4038 634.897 79.5878 634.897 78.6245V71.1275H636.835ZM650.884 83.0615C650.091 83.0615 649.377 82.9255 648.742 82.6535C648.107 82.3702 647.609 81.9735 647.246 81.4635C646.883 80.9535 646.702 80.3585 646.702 79.6785H648.776C648.821 80.1885 649.02 80.6078 649.371 80.9365C649.734 81.2652 650.238 81.4295 650.884 81.4295C651.553 81.4295 652.074 81.2708 652.448 80.9535C652.822 80.6248 653.009 80.2055 653.009 79.6955C653.009 79.2988 652.89 78.9758 652.652 78.7265C652.425 78.4772 652.136 78.2845 651.785 78.1485C651.445 78.0125 650.969 77.8652 650.357 77.7065C649.586 77.5025 648.957 77.2985 648.47 77.0945C647.994 76.8792 647.586 76.5505 647.246 76.1085C646.906 75.6665 646.736 75.0772 646.736 74.3405C646.736 73.6605 646.906 73.0655 647.246 72.5555C647.586 72.0455 648.062 71.6545 648.674 71.3825C649.286 71.1105 649.994 70.9745 650.799 70.9745C651.944 70.9745 652.879 71.2635 653.604 71.8415C654.341 72.4082 654.749 73.1902 654.828 74.1875H652.686C652.652 73.7568 652.448 73.3885 652.074 73.0825C651.7 72.7765 651.207 72.6235 650.595 72.6235C650.04 72.6235 649.586 72.7652 649.235 73.0485C648.884 73.3318 648.708 73.7398 648.708 74.2725C648.708 74.6352 648.816 74.9355 649.031 75.1735C649.258 75.4002 649.541 75.5815 649.881 75.7175C650.221 75.8535 650.686 76.0008 651.275 76.1595C652.057 76.3748 652.692 76.5902 653.179 76.8055C653.678 77.0208 654.097 77.3552 654.437 77.8085C654.788 78.2505 654.964 78.8455 654.964 79.5935C654.964 80.1942 654.8 80.7608 654.471 81.2935C654.154 81.8262 653.683 82.2568 653.06 82.5855C652.448 82.9028 651.723 83.0615 650.884 83.0615ZM665.224 71.1275V72.7085H662.079V82.9425H660.141V72.7085H656.979V71.1275H665.224ZM672.915 83.0615C671.816 83.0615 670.802 82.8065 669.872 82.2965C668.954 81.7752 668.223 81.0555 667.679 80.1375C667.147 79.2082 666.88 78.1655 666.88 77.0095C666.88 75.8535 667.147 74.8165 667.679 73.8985C668.223 72.9805 668.954 72.2665 669.872 71.7565C670.802 71.2352 671.816 70.9745 672.915 70.9745C674.026 70.9745 675.04 71.2352 675.958 71.7565C676.888 72.2665 677.619 72.9805 678.151 73.8985C678.684 74.8165 678.95 75.8535 678.95 77.0095C678.95 78.1655 678.684 79.2082 678.151 80.1375C677.619 81.0555 676.888 81.7752 675.958 82.2965C675.04 82.8065 674.026 83.0615 672.915 83.0615ZM672.915 81.3785C673.697 81.3785 674.394 81.2028 675.006 80.8515C675.618 80.4888 676.094 79.9788 676.434 79.3215C676.786 78.6528 676.961 77.8822 676.961 77.0095C676.961 76.1368 676.786 75.3718 676.434 74.7145C676.094 74.0572 675.618 73.5528 675.006 73.2015C674.394 72.8502 673.697 72.6745 672.915 72.6745C672.133 72.6745 671.436 72.8502 670.824 73.2015C670.212 73.5528 669.731 74.0572 669.379 74.7145C669.039 75.3718 668.869 76.1368 668.869 77.0095C668.869 77.8822 669.039 78.6528 669.379 79.3215C669.731 79.9788 670.212 80.4888 670.824 80.8515C671.436 81.2028 672.133 81.3785 672.915 81.3785ZM693.642 71.1275V82.9425H691.704V74.8505L688.1 82.9425H686.757L683.136 74.8505V82.9425H681.198V71.1275H683.289L687.437 80.3925L691.568 71.1275H693.642ZM698.467 72.6915V76.1595H702.547V77.7405H698.467V81.3615H703.057V82.9425H696.529V71.1105H703.057V72.6915H698.467ZM711.921 82.9425L709.201 78.2165H707.722V82.9425H705.784V71.1275H709.864C710.77 71.1275 711.535 71.2862 712.159 71.6035C712.793 71.9208 713.264 72.3458 713.57 72.8785C713.887 73.4112 714.046 74.0062 714.046 74.6635C714.046 75.4342 713.819 76.1368 713.366 76.7715C712.924 77.3948 712.238 77.8198 711.309 78.0465L714.233 82.9425H711.921ZM707.722 76.6695H709.864C710.589 76.6695 711.133 76.4882 711.496 76.1255C711.87 75.7628 712.057 75.2755 712.057 74.6635C712.057 74.0515 711.875 73.5755 711.513 73.2355C711.15 72.8842 710.6 72.7085 709.864 72.7085H707.722V76.6695ZM720.758 83.0615C719.965 83.0615 719.251 82.9255 718.616 82.6535C717.981 82.3702 717.483 81.9735 717.12 81.4635C716.757 80.9535 716.576 80.3585 716.576 79.6785H718.65C718.695 80.1885 718.894 80.6078 719.245 80.9365C719.608 81.2652 720.112 81.4295 720.758 81.4295C721.427 81.4295 721.948 81.2708 722.322 80.9535C722.696 80.6248 722.883 80.2055 722.883 79.6955C722.883 79.2988 722.764 78.9758 722.526 78.7265C722.299 78.4772 722.01 78.2845 721.659 78.1485C721.319 78.0125 720.843 77.8652 720.231 77.7065C719.46 77.5025 718.831 77.2985 718.344 77.0945C717.868 76.8792 717.46 76.5505 717.12 76.1085C716.78 75.6665 716.61 75.0772 716.61 74.3405C716.61 73.6605 716.78 73.0655 717.12 72.5555C717.46 72.0455 717.936 71.6545 718.548 71.3825C719.16 71.1105 719.868 70.9745 720.673 70.9745C721.818 70.9745 722.753 71.2635 723.478 71.8415C724.215 72.4082 724.623 73.1902 724.702 74.1875H722.56C722.526 73.7568 722.322 73.3885 721.948 73.0825C721.574 72.7765 721.081 72.6235 720.469 72.6235C719.914 72.6235 719.46 72.7652 719.109 73.0485C718.758 73.3318 718.582 73.7398 718.582 74.2725C718.582 74.6352 718.69 74.9355 718.905 75.1735C719.132 75.4002 719.415 75.5815 719.755 75.7175C720.095 75.8535 720.56 76.0008 721.149 76.1595C721.931 76.3748 722.566 76.5902 723.053 76.8055C723.552 77.0208 723.971 77.3552 724.311 77.8085C724.662 78.2505 724.838 78.8455 724.838 79.5935C724.838 80.1942 724.674 80.7608 724.345 81.2935C724.028 81.8262 723.557 82.2568 722.934 82.5855C722.322 82.9028 721.597 83.0615 720.758 83.0615Z" fill="#6755A1"/>
<path d="M655.758 19.119C654.659 19.119 653.645 18.864 652.715 18.354C651.797 17.8327 651.066 17.113 650.522 16.195C649.99 15.2657 649.723 14.223 649.723 13.067C649.723 11.911 649.99 10.874 650.522 9.956C651.066 9.038 651.797 8.324 652.715 7.814C653.645 7.29267 654.659 7.032 655.758 7.032C656.869 7.032 657.883 7.29267 658.801 7.814C659.731 8.324 660.462 9.038 660.994 9.956C661.527 10.874 661.793 11.911 661.793 13.067C661.793 14.223 661.527 15.2657 660.994 16.195C660.462 17.113 659.731 17.8327 658.801 18.354C657.883 18.864 656.869 19.119 655.758 19.119ZM655.758 17.436C656.54 17.436 657.237 17.2603 657.849 16.909C658.461 16.5463 658.937 16.0363 659.277 15.379C659.629 14.7103 659.804 13.9397 659.804 13.067C659.804 12.1943 659.629 11.4293 659.277 10.772C658.937 10.1147 658.461 9.61033 657.849 9.259C657.237 8.90767 656.54 8.732 655.758 8.732C654.976 8.732 654.279 8.90767 653.667 9.259C653.055 9.61033 652.574 10.1147 652.222 10.772C651.882 11.4293 651.712 12.1943 651.712 13.067C651.712 13.9397 651.882 14.7103 652.222 15.379C652.574 16.0363 653.055 16.5463 653.667 16.909C654.279 17.2603 654.976 17.436 655.758 17.436ZM674.224 7.185L669.787 19H667.543L663.089 7.185H665.163L668.665 17.011L672.184 7.185H674.224ZM678.122 8.749V12.217H682.202V13.798H678.122V17.419H682.712V19H676.184V7.168H682.712V8.749H678.122ZM691.576 19L688.856 14.274H687.377V19H685.439V7.185H689.519C690.426 7.185 691.191 7.34367 691.814 7.661C692.449 7.97833 692.919 8.40333 693.225 8.936C693.543 9.46867 693.701 10.0637 693.701 10.721C693.701 11.4917 693.475 12.1943 693.021 12.829C692.579 13.4523 691.894 13.8773 690.964 14.104L693.888 19H691.576ZM687.377 12.727H689.519C690.245 12.727 690.789 12.5457 691.151 12.183C691.525 11.8203 691.712 11.333 691.712 10.721C691.712 10.109 691.531 9.633 691.168 9.293C690.806 8.94167 690.256 8.766 689.519 8.766H687.377V12.727Z" fill="#6755A1"/>
<path d="M625.172 39.12V31.76H637.492V61H629.292V39.12H625.172ZM642.281 45.96C642.281 41.3733 643.214 37.76 645.081 35.12C646.948 32.48 649.881 31.16 653.881 31.16C657.881 31.16 660.814 32.48 662.681 35.12C664.574 37.76 665.521 41.3733 665.521 45.96C665.521 50.6 664.588 54.24 662.721 56.88C660.854 59.52 657.908 60.84 653.881 60.84C649.854 60.84 646.908 59.52 645.041 56.88C643.201 54.24 642.281 50.6 642.281 45.96ZM657.761 45.96C657.761 43.56 657.508 41.7333 657.001 40.48C656.494 39.2 655.454 38.56 653.881 38.56C652.308 38.56 651.268 39.2 650.761 40.48C650.254 41.7333 650.001 43.56 650.001 45.96C650.001 48.4133 650.241 50.28 650.721 51.56C651.228 52.8133 652.281 53.44 653.881 53.44C655.481 53.44 656.521 52.8133 657.001 51.56C657.508 50.28 657.761 48.4133 657.761 45.96ZM702.97 32.8V61H695.13V45.44L689.81 61H683.25L677.89 45.32V61H670.05V32.8H679.53L686.61 51.12L693.53 32.8H702.97ZM727.993 50.76H721.553V57.4H714.033V50.76H707.553V43.68H714.033V37H721.553V43.68H727.993V50.76Z" fill="#3E2B7D"/>
<path d="M963 584C641.276 768 183.615 660.667 -5 584V782H963V584Z" fill="#FFF9F9"/>
<path d="M183.758 264.119C182.659 264.119 181.645 263.864 180.715 263.354C179.797 262.833 179.066 262.113 178.522 261.195C177.99 260.266 177.723 259.223 177.723 258.067C177.723 256.911 177.99 255.874 178.522 254.956C179.066 254.038 179.797 253.324 180.715 252.814C181.645 252.293 182.659 252.032 183.758 252.032C184.869 252.032 185.883 252.293 186.801 252.814C187.731 253.324 188.462 254.038 188.994 254.956C189.527 255.874 189.793 256.911 189.793 258.067C189.793 259.223 189.527 260.266 188.994 261.195C188.462 262.113 187.731 262.833 186.801 263.354C185.883 263.864 184.869 264.119 183.758 264.119ZM183.758 262.436C184.54 262.436 185.237 262.26 185.849 261.909C186.461 261.546 186.937 261.036 187.277 260.379C187.629 259.71 187.804 258.94 187.804 258.067C187.804 257.194 187.629 256.429 187.277 255.772C186.937 255.115 186.461 254.61 185.849 254.259C185.237 253.908 184.54 253.732 183.758 253.732C182.976 253.732 182.279 253.908 181.667 254.259C181.055 254.61 180.574 255.115 180.222 255.772C179.882 256.429 179.712 257.194 179.712 258.067C179.712 258.94 179.882 259.71 180.222 260.379C180.574 261.036 181.055 261.546 181.667 261.909C182.279 262.26 182.976 262.436 183.758 262.436ZM202.224 252.185L197.787 264H195.543L191.089 252.185H193.163L196.665 262.011L200.184 252.185H202.224ZM206.122 253.749V257.217H210.202V258.798H206.122V262.419H210.712V264H204.184V252.168H210.712V253.749H206.122ZM219.576 264L216.856 259.274H215.377V264H213.439V252.185H217.519C218.426 252.185 219.191 252.344 219.814 252.661C220.449 252.978 220.919 253.403 221.225 253.936C221.543 254.469 221.701 255.064 221.701 255.721C221.701 256.492 221.475 257.194 221.021 257.829C220.579 258.452 219.894 258.877 218.964 259.104L221.888 264H219.576ZM215.377 257.727H217.519C218.245 257.727 218.789 257.546 219.151 257.183C219.525 256.82 219.712 256.333 219.712 255.721C219.712 255.109 219.531 254.633 219.168 254.293C218.806 253.942 218.256 253.766 217.519 253.766H215.377V257.727Z" fill="#618718"/>
<path d="M153.038 326.067C153.038 324.911 153.304 323.874 153.837 322.956C154.381 322.038 155.112 321.324 156.03 320.814C156.959 320.293 157.973 320.032 159.073 320.032C160.331 320.032 161.447 320.344 162.422 320.967C163.408 321.579 164.122 322.452 164.564 323.585H162.235C161.929 322.962 161.504 322.497 160.96 322.191C160.416 321.885 159.787 321.732 159.073 321.732C158.291 321.732 157.594 321.908 156.982 322.259C156.37 322.61 155.888 323.115 155.537 323.772C155.197 324.429 155.027 325.194 155.027 326.067C155.027 326.94 155.197 327.705 155.537 328.362C155.888 329.019 156.37 329.529 156.982 329.892C157.594 330.243 158.291 330.419 159.073 330.419C159.787 330.419 160.416 330.266 160.96 329.96C161.504 329.654 161.929 329.189 162.235 328.566H164.564C164.122 329.699 163.408 330.572 162.422 331.184C161.447 331.796 160.331 332.102 159.073 332.102C157.962 332.102 156.948 331.847 156.03 331.337C155.112 330.816 154.381 330.096 153.837 329.178C153.304 328.26 153.038 327.223 153.038 326.067ZM172.561 332.119C171.462 332.119 170.447 331.864 169.518 331.354C168.6 330.833 167.869 330.113 167.325 329.195C166.792 328.266 166.526 327.223 166.526 326.067C166.526 324.911 166.792 323.874 167.325 322.956C167.869 322.038 168.6 321.324 169.518 320.814C170.447 320.293 171.462 320.032 172.561 320.032C173.672 320.032 174.686 320.293 175.604 320.814C176.533 321.324 177.264 322.038 177.797 322.956C178.33 323.874 178.596 324.911 178.596 326.067C178.596 327.223 178.33 328.266 177.797 329.195C177.264 330.113 176.533 330.833 175.604 331.354C174.686 331.864 173.672 332.119 172.561 332.119ZM172.561 330.436C173.343 330.436 174.04 330.26 174.652 329.909C175.264 329.546 175.74 329.036 176.08 328.379C176.431 327.71 176.607 326.94 176.607 326.067C176.607 325.194 176.431 324.429 176.08 323.772C175.74 323.115 175.264 322.61 174.652 322.259C174.04 321.908 173.343 321.732 172.561 321.732C171.779 321.732 171.082 321.908 170.47 322.259C169.858 322.61 169.376 323.115 169.025 323.772C168.685 324.429 168.515 325.194 168.515 326.067C168.515 326.94 168.685 327.71 169.025 328.379C169.376 329.036 169.858 329.546 170.47 329.909C171.082 330.26 171.779 330.436 172.561 330.436ZM182.764 320.185V327.716C182.764 328.611 182.996 329.286 183.461 329.739C183.937 330.192 184.594 330.419 185.433 330.419C186.283 330.419 186.94 330.192 187.405 329.739C187.881 329.286 188.119 328.611 188.119 327.716V320.185H190.057V327.682C190.057 328.645 189.847 329.461 189.428 330.13C189.009 330.799 188.448 331.297 187.745 331.626C187.042 331.955 186.266 332.119 185.416 332.119C184.566 332.119 183.79 331.955 183.087 331.626C182.396 331.297 181.846 330.799 181.438 330.13C181.03 329.461 180.826 328.645 180.826 327.682V320.185H182.764ZM202.627 332H200.689L194.858 323.177V332H192.92V320.168H194.858L200.689 328.974V320.168H202.627V332ZM213.145 320.185V321.766H210V332H208.062V321.766H204.9V320.185H213.145ZM221.585 332L218.865 327.274H217.386V332H215.448V320.185H219.528C220.435 320.185 221.2 320.344 221.823 320.661C222.458 320.978 222.928 321.403 223.234 321.936C223.551 322.469 223.71 323.064 223.71 323.721C223.71 324.492 223.483 325.194 223.03 325.829C222.588 326.452 221.902 326.877 220.973 327.104L223.897 332H221.585ZM217.386 325.727H219.528C220.253 325.727 220.797 325.546 221.16 325.183C221.534 324.82 221.721 324.333 221.721 323.721C221.721 323.109 221.54 322.633 221.177 322.293C220.814 321.942 220.265 321.766 219.528 321.766H217.386V325.727ZM228.467 320.185V332H226.529V320.185H228.467ZM233.29 321.749V325.217H237.37V326.798H233.29V330.419H237.88V332H231.352V320.168H237.88V321.749H233.29ZM244.5 332.119C243.706 332.119 242.992 331.983 242.358 331.711C241.723 331.428 241.224 331.031 240.862 330.521C240.499 330.011 240.318 329.416 240.318 328.736H242.392C242.437 329.246 242.635 329.665 242.987 329.994C243.349 330.323 243.854 330.487 244.5 330.487C245.168 330.487 245.69 330.328 246.064 330.011C246.438 329.682 246.625 329.263 246.625 328.753C246.625 328.356 246.506 328.033 246.268 327.784C246.041 327.535 245.752 327.342 245.401 327.206C245.061 327.07 244.585 326.923 243.973 326.764C243.202 326.56 242.573 326.356 242.086 326.152C241.61 325.937 241.202 325.608 240.862 325.166C240.522 324.724 240.352 324.135 240.352 323.398C240.352 322.718 240.522 322.123 240.862 321.613C241.202 321.103 241.678 320.712 242.29 320.44C242.902 320.168 243.61 320.032 244.415 320.032C245.559 320.032 246.494 320.321 247.22 320.899C247.956 321.466 248.364 322.248 248.444 323.245H246.302C246.268 322.814 246.064 322.446 245.69 322.14C245.316 321.834 244.823 321.681 244.211 321.681C243.655 321.681 243.202 321.823 242.851 322.106C242.499 322.389 242.324 322.797 242.324 323.33C242.324 323.693 242.431 323.993 242.647 324.231C242.873 324.458 243.157 324.639 243.497 324.775C243.837 324.911 244.301 325.058 244.891 325.217C245.673 325.432 246.307 325.648 246.795 325.863C247.293 326.078 247.713 326.413 248.053 326.866C248.404 327.308 248.58 327.903 248.58 328.651C248.58 329.252 248.415 329.818 248.087 330.351C247.769 330.884 247.299 331.314 246.676 331.643C246.064 331.96 245.338 332.119 244.5 332.119Z" fill="#618718"/>
<path d="M397.758 91.119C396.659 91.119 395.645 90.864 394.715 90.354C393.797 89.8327 393.066 89.113 392.522 88.195C391.99 87.2657 391.723 86.223 391.723 85.067C391.723 83.911 391.99 82.874 392.522 81.956C393.066 81.038 393.797 80.324 394.715 79.814C395.645 79.2927 396.659 79.032 397.758 79.032C398.869 79.032 399.883 79.2927 400.801 79.814C401.731 80.324 402.462 81.038 402.994 81.956C403.527 82.874 403.793 83.911 403.793 85.067C403.793 86.223 403.527 87.2657 402.994 88.195C402.462 89.113 401.731 89.8327 400.801 90.354C399.883 90.864 398.869 91.119 397.758 91.119ZM397.758 89.436C398.54 89.436 399.237 89.2603 399.849 88.909C400.461 88.5463 400.937 88.0363 401.277 87.379C401.629 86.7103 401.804 85.9397 401.804 85.067C401.804 84.1943 401.629 83.4293 401.277 82.772C400.937 82.1147 400.461 81.6103 399.849 81.259C399.237 80.9077 398.54 80.732 397.758 80.732C396.976 80.732 396.279 80.9077 395.667 81.259C395.055 81.6103 394.574 82.1147 394.222 82.772C393.882 83.4293 393.712 84.1943 393.712 85.067C393.712 85.9397 393.882 86.7103 394.222 87.379C394.574 88.0363 395.055 88.5463 395.667 88.909C396.279 89.2603 396.976 89.436 397.758 89.436ZM416.224 79.185L411.787 91H409.543L405.089 79.185H407.163L410.665 89.011L414.184 79.185H416.224ZM420.122 80.749V84.217H424.202V85.798H420.122V89.419H424.712V91H418.184V79.168H424.712V80.749H420.122ZM433.576 91L430.856 86.274H429.377V91H427.439V79.185H431.519C432.426 79.185 433.191 79.3437 433.814 79.661C434.449 79.9783 434.919 80.4033 435.225 80.936C435.543 81.4687 435.701 82.0637 435.701 82.721C435.701 83.4917 435.475 84.1943 435.021 84.829C434.579 85.4523 433.894 85.8773 432.964 86.104L435.888 91H433.576ZM429.377 84.727H431.519C432.245 84.727 432.789 84.5457 433.151 84.183C433.525 83.8203 433.712 83.333 433.712 82.721C433.712 82.109 433.531 81.633 433.168 81.293C432.806 80.9417 432.256 80.766 431.519 80.766H429.377V84.727Z" fill="#CE8D24"/>
<path d="M172.492 290.12C170.118 288.813 168.932 286.773 168.932 284C168.932 282.56 169.305 281.253 170.052 280.08C170.825 278.88 171.985 277.933 173.532 277.24C175.078 276.52 176.985 276.16 179.252 276.16C181.518 276.16 183.425 276.52 184.972 277.24C186.518 277.933 187.665 278.88 188.412 280.08C189.185 281.253 189.572 282.56 189.572 284C189.572 285.413 189.252 286.64 188.612 287.68C187.998 288.693 187.132 289.507 186.012 290.12C187.398 290.84 188.452 291.8 189.172 293C189.892 294.2 190.252 295.613 190.252 297.24C190.252 299.187 189.758 300.867 188.772 302.28C187.785 303.667 186.452 304.72 184.772 305.44C183.118 306.16 181.278 306.52 179.252 306.52C177.225 306.52 175.372 306.16 173.692 305.44C172.038 304.72 170.718 303.667 169.732 302.28C168.745 300.867 168.252 299.187 168.252 297.24C168.252 295.613 168.612 294.2 169.332 293C170.052 291.8 171.105 290.84 172.492 290.12ZM181.892 285.24C181.892 284.307 181.652 283.587 181.172 283.08C180.692 282.547 180.052 282.28 179.252 282.28C178.478 282.28 177.838 282.547 177.332 283.08C176.852 283.613 176.612 284.333 176.612 285.24C176.612 286.147 176.852 286.853 177.332 287.36C177.838 287.867 178.478 288.12 179.252 288.12C180.025 288.12 180.652 287.867 181.132 287.36C181.638 286.853 181.892 286.147 181.892 285.24ZM179.252 293.48C178.238 293.48 177.412 293.787 176.772 294.4C176.158 294.987 175.852 295.787 175.852 296.8C175.852 297.76 176.158 298.547 176.772 299.16C177.385 299.773 178.212 300.08 179.252 300.08C180.292 300.08 181.105 299.773 181.692 299.16C182.305 298.547 182.612 297.76 182.612 296.8C182.612 295.787 182.305 294.987 181.692 294.4C181.078 293.787 180.265 293.48 179.252 293.48ZM194.705 290.96C194.705 286.373 195.638 282.76 197.505 280.12C199.371 277.48 202.305 276.16 206.305 276.16C210.305 276.16 213.238 277.48 215.105 280.12C216.998 282.76 217.945 286.373 217.945 290.96C217.945 295.6 217.011 299.24 215.145 301.88C213.278 304.52 210.331 305.84 206.305 305.84C202.278 305.84 199.331 304.52 197.465 301.88C195.625 299.24 194.705 295.6 194.705 290.96ZM210.185 290.96C210.185 288.56 209.931 286.733 209.425 285.48C208.918 284.2 207.878 283.56 206.305 283.56C204.731 283.56 203.691 284.2 203.185 285.48C202.678 286.733 202.425 288.56 202.425 290.96C202.425 293.413 202.665 295.28 203.145 296.56C203.651 297.813 204.705 298.44 206.305 298.44C207.905 298.44 208.945 297.813 209.425 296.56C209.931 295.28 210.185 293.413 210.185 290.96ZM242.234 295.76H235.794V302.4H228.274V295.76H221.794V288.68H228.274V282H235.794V288.68H242.234V295.76Z" fill="#51750C"/>
<path d="M376.824 124.16C377.144 125.973 378.13 126.88 379.784 126.88C380.984 126.88 381.797 126.32 382.224 125.2C382.677 124.053 382.904 122.227 382.904 119.72C382.37 120.493 381.624 121.107 380.664 121.56C379.704 122.013 378.624 122.24 377.424 122.24C374.864 122.24 372.784 121.44 371.184 119.84C369.584 118.24 368.784 115.933 368.784 112.92C368.784 110.947 369.197 109.227 370.024 107.76C370.85 106.267 372.024 105.12 373.544 104.32C375.09 103.52 376.89 103.12 378.944 103.12C383.024 103.12 385.864 104.36 387.464 106.84C389.09 109.293 389.904 112.867 389.904 117.56C389.904 122.813 389.117 126.733 387.544 129.32C385.997 131.907 383.33 133.2 379.544 133.2C377.49 133.2 375.717 132.787 374.224 131.96C372.757 131.107 371.624 130 370.824 128.64C370.05 127.253 369.61 125.76 369.504 124.16H376.824ZM379.304 116.16C380.237 116.16 380.97 115.893 381.504 115.36C382.037 114.8 382.304 114.053 382.304 113.12C382.304 112.053 382.024 111.253 381.464 110.72C380.93 110.187 380.184 109.92 379.224 109.92C378.264 109.92 377.504 110.2 376.944 110.76C376.41 111.293 376.144 112.067 376.144 113.08C376.144 114.013 376.41 114.76 376.944 115.32C377.504 115.88 378.29 116.16 379.304 116.16ZM415.042 110.68H403.042V115.12C403.548 114.587 404.242 114.16 405.122 113.84C406.002 113.52 406.975 113.36 408.042 113.36C409.962 113.36 411.562 113.8 412.842 114.68C414.148 115.56 415.108 116.72 415.722 118.16C416.335 119.6 416.642 121.173 416.642 122.88C416.642 126.027 415.748 128.507 413.962 130.32C412.175 132.107 409.695 133 406.522 133C404.308 133 402.388 132.627 400.762 131.88C399.162 131.107 397.935 130.04 397.082 128.68C396.228 127.32 395.788 125.76 395.762 124H403.402C403.482 124.613 403.748 125.147 404.202 125.6C404.655 126.053 405.322 126.28 406.202 126.28C407.135 126.28 407.842 125.96 408.322 125.32C408.802 124.68 409.042 123.827 409.042 122.76C409.042 121.72 408.788 120.933 408.282 120.4C407.775 119.84 407.042 119.56 406.082 119.56C405.362 119.56 404.775 119.747 404.322 120.12C403.895 120.467 403.642 120.907 403.562 121.44H395.922V103.76H415.042V110.68ZM420.772 117.96C420.772 113.373 421.706 109.76 423.572 107.12C425.439 104.48 428.372 103.16 432.372 103.16C436.372 103.16 439.306 104.48 441.172 107.12C443.066 109.76 444.012 113.373 444.012 117.96C444.012 122.6 443.079 126.24 441.212 128.88C439.346 131.52 436.399 132.84 432.372 132.84C428.346 132.84 425.399 131.52 423.532 128.88C421.692 126.24 420.772 122.6 420.772 117.96ZM436.252 117.96C436.252 115.56 435.999 113.733 435.492 112.48C434.986 111.2 433.946 110.56 432.372 110.56C430.799 110.56 429.759 111.2 429.252 112.48C428.746 113.733 428.492 115.56 428.492 117.96C428.492 120.413 428.732 122.28 429.212 123.56C429.719 124.813 430.772 125.44 432.372 125.44C433.972 125.44 435.012 124.813 435.492 123.56C435.999 122.28 436.252 120.413 436.252 117.96ZM468.302 122.76H461.862V129.4H454.342V122.76H447.862V115.68H454.342V109H461.862V115.68H468.302V122.76Z" fill="#B37513"/>
<defs>
<clipPath id="clip0_220_13">
<rect width="75" height="75" fill="white" transform="translate(376 205)"/>
</clipPath>
</defs>
</svg>
