<svg width="189" height="37" viewBox="0 0 189 37" fill="none" xmlns="http://www.w3.org/2000/svg">
<rect width="189" height="37" rx="18.5" fill="#FEECEB"/>
<path d="M35.436 14.636L33.012 23H31.788L29.844 16.268L27.828 23L26.616 23.012L24.276 14.636H25.44L27.264 21.728L29.28 14.636H30.504L32.424 21.704L34.26 14.636H35.436ZM39.499 23.108C38.883 23.108 38.323 22.968 37.819 22.688C37.323 22.408 36.931 22.012 36.643 21.5C36.363 20.98 36.223 20.38 36.223 19.7C36.223 19.028 36.367 18.436 36.655 17.924C36.951 17.404 37.351 17.008 37.855 16.736C38.359 16.456 38.923 16.316 39.547 16.316C40.171 16.316 40.735 16.456 41.239 16.736C41.743 17.008 42.139 17.4 42.427 17.912C42.723 18.424 42.871 19.02 42.871 19.7C42.871 20.38 42.719 20.98 42.415 21.5C42.119 22.012 41.715 22.408 41.203 22.688C40.691 22.968 40.123 23.108 39.499 23.108ZM39.499 22.148C39.891 22.148 40.259 22.056 40.603 21.872C40.947 21.688 41.223 21.412 41.431 21.044C41.647 20.676 41.755 20.228 41.755 19.7C41.755 19.172 41.651 18.724 41.443 18.356C41.235 17.988 40.963 17.716 40.627 17.54C40.291 17.356 39.927 17.264 39.535 17.264C39.135 17.264 38.767 17.356 38.431 17.54C38.103 17.716 37.839 17.988 37.639 18.356C37.439 18.724 37.339 19.172 37.339 19.7C37.339 20.236 37.435 20.688 37.627 21.056C37.827 21.424 38.091 21.7 38.419 21.884C38.747 22.06 39.107 22.148 39.499 22.148ZM45.3988 17.492C45.5908 17.116 45.8628 16.824 46.2148 16.616C46.5748 16.408 47.0108 16.304 47.5228 16.304V17.432H47.2348C46.0108 17.432 45.3988 18.096 45.3988 19.424V23H44.3068V16.424H45.3988V17.492ZM49.8754 14.12V23H48.7834V14.12H49.8754ZM51.3285 19.688C51.3285 19.016 51.4645 18.428 51.7365 17.924C52.0085 17.412 52.3805 17.016 52.8525 16.736C53.3325 16.456 53.8685 16.316 54.4605 16.316C54.9725 16.316 55.4485 16.436 55.8885 16.676C56.3285 16.908 56.6645 17.216 56.8965 17.6V14.12H58.0005V23H56.8965V21.764C56.6805 22.156 56.3605 22.48 55.9365 22.736C55.5125 22.984 55.0165 23.108 54.4485 23.108C53.8645 23.108 53.3325 22.964 52.8525 22.676C52.3805 22.388 52.0085 21.984 51.7365 21.464C51.4645 20.944 51.3285 20.352 51.3285 19.688ZM56.8965 19.7C56.8965 19.204 56.7965 18.772 56.5965 18.404C56.3965 18.036 56.1245 17.756 55.7805 17.564C55.4445 17.364 55.0725 17.264 54.6645 17.264C54.2565 17.264 53.8845 17.36 53.5485 17.552C53.2125 17.744 52.9445 18.024 52.7445 18.392C52.5445 18.76 52.4445 19.192 52.4445 19.688C52.4445 20.192 52.5445 20.632 52.7445 21.008C52.9445 21.376 53.2125 21.66 53.5485 21.86C53.8845 22.052 54.2565 22.148 54.6645 22.148C55.0725 22.148 55.4445 22.052 55.7805 21.86C56.1245 21.66 56.3965 21.376 56.5965 21.008C56.7965 20.632 56.8965 20.196 56.8965 19.7ZM68.6059 16.424L66.5539 23H65.4259L63.8419 17.78L62.2579 23H61.1299L59.0659 16.424H60.1819L61.6939 21.944L63.3259 16.424H64.4419L66.0379 21.956L67.5259 16.424H68.6059ZM70.2536 15.356C70.0456 15.356 69.8696 15.284 69.7256 15.14C69.5816 14.996 69.5096 14.82 69.5096 14.612C69.5096 14.404 69.5816 14.228 69.7256 14.084C69.8696 13.94 70.0456 13.868 70.2536 13.868C70.4536 13.868 70.6216 13.94 70.7576 14.084C70.9016 14.228 70.9736 14.404 70.9736 14.612C70.9736 14.82 70.9016 14.996 70.7576 15.14C70.6216 15.284 70.4536 15.356 70.2536 15.356ZM70.7816 16.424V23H69.6896V16.424H70.7816ZM72.2348 19.688C72.2348 19.016 72.3708 18.428 72.6428 17.924C72.9148 17.412 73.2868 17.016 73.7588 16.736C74.2388 16.456 74.7748 16.316 75.3668 16.316C75.8788 16.316 76.3548 16.436 76.7948 16.676C77.2348 16.908 77.5708 17.216 77.8028 17.6V14.12H78.9068V23H77.8028V21.764C77.5868 22.156 77.2668 22.48 76.8428 22.736C76.4188 22.984 75.9228 23.108 75.3548 23.108C74.7708 23.108 74.2388 22.964 73.7588 22.676C73.2868 22.388 72.9148 21.984 72.6428 21.464C72.3708 20.944 72.2348 20.352 72.2348 19.688ZM77.8028 19.7C77.8028 19.204 77.7028 18.772 77.5028 18.404C77.3028 18.036 77.0308 17.756 76.6868 17.564C76.3508 17.364 75.9788 17.264 75.5708 17.264C75.1628 17.264 74.7908 17.36 74.4548 17.552C74.1188 17.744 73.8508 18.024 73.6508 18.392C73.4508 18.76 73.3508 19.192 73.3508 19.688C73.3508 20.192 73.4508 20.632 73.6508 21.008C73.8508 21.376 74.1188 21.66 74.4548 21.86C74.7908 22.052 75.1628 22.148 75.5708 22.148C75.9788 22.148 76.3508 22.052 76.6868 21.86C77.0308 21.66 77.3028 21.376 77.5028 21.008C77.7028 20.632 77.8028 20.196 77.8028 19.7ZM86.7521 19.46C86.7521 19.668 86.7401 19.888 86.7161 20.12H81.4601C81.5001 20.768 81.7201 21.276 82.1201 21.644C82.5281 22.004 83.0201 22.184 83.5961 22.184C84.0681 22.184 84.4601 22.076 84.7721 21.86C85.0921 21.636 85.3161 21.34 85.4441 20.972H86.6201C86.4441 21.604 86.0921 22.12 85.5641 22.52C85.0361 22.912 84.3801 23.108 83.5961 23.108C82.9721 23.108 82.4121 22.968 81.9161 22.688C81.4281 22.408 81.0441 22.012 80.7641 21.5C80.4841 20.98 80.3441 20.38 80.3441 19.7C80.3441 19.02 80.4801 18.424 80.7521 17.912C81.0241 17.4 81.4041 17.008 81.8921 16.736C82.3881 16.456 82.9561 16.316 83.5961 16.316C84.2201 16.316 84.7721 16.452 85.2521 16.724C85.7321 16.996 86.1001 17.372 86.3561 17.852C86.6201 18.324 86.7521 18.86 86.7521 19.46ZM85.6241 19.232C85.6241 18.816 85.5321 18.46 85.3481 18.164C85.1641 17.86 84.9121 17.632 84.5921 17.48C84.2801 17.32 83.9321 17.24 83.5481 17.24C82.9961 17.24 82.5241 17.416 82.1321 17.768C81.7481 18.12 81.5281 18.608 81.4721 19.232H85.6241ZM94.0448 23.084C93.4928 23.084 92.9968 22.988 92.5568 22.796C92.1248 22.596 91.7848 22.324 91.5368 21.98C91.2888 21.628 91.1608 21.224 91.1528 20.768H92.3168C92.3568 21.16 92.5168 21.492 92.7968 21.764C93.0848 22.028 93.5008 22.16 94.0448 22.16C94.5648 22.16 94.9728 22.032 95.2688 21.776C95.5728 21.512 95.7248 21.176 95.7248 20.768C95.7248 20.448 95.6368 20.188 95.4608 19.988C95.2848 19.788 95.0648 19.636 94.8008 19.532C94.5368 19.428 94.1808 19.316 93.7328 19.196C93.1808 19.052 92.7368 18.908 92.4008 18.764C92.0728 18.62 91.7888 18.396 91.5488 18.092C91.3168 17.78 91.2008 17.364 91.2008 16.844C91.2008 16.388 91.3168 15.984 91.5488 15.632C91.7808 15.28 92.1048 15.008 92.5208 14.816C92.9448 14.624 93.4288 14.528 93.9728 14.528C94.7568 14.528 95.3968 14.724 95.8928 15.116C96.3968 15.508 96.6808 16.028 96.7448 16.676H95.5448C95.5048 16.356 95.3368 16.076 95.0408 15.836C94.7448 15.588 94.3528 15.464 93.8648 15.464C93.4088 15.464 93.0368 15.584 92.7488 15.824C92.4608 16.056 92.3168 16.384 92.3168 16.808C92.3168 17.112 92.4008 17.36 92.5688 17.552C92.7448 17.744 92.9568 17.892 93.2048 17.996C93.4608 18.092 93.8168 18.204 94.2728 18.332C94.8248 18.484 95.2688 18.636 95.6048 18.788C95.9408 18.932 96.2288 19.16 96.4688 19.472C96.7088 19.776 96.8288 20.192 96.8288 20.72C96.8288 21.128 96.7208 21.512 96.5048 21.872C96.2888 22.232 95.9688 22.524 95.5448 22.748C95.1208 22.972 94.6208 23.084 94.0448 23.084ZM104.268 16.424V23H103.176V22.028C102.968 22.364 102.676 22.628 102.3 22.82C101.932 23.004 101.524 23.096 101.076 23.096C100.564 23.096 100.104 22.992 99.6957 22.784C99.2877 22.568 98.9637 22.248 98.7237 21.824C98.4917 21.4 98.3757 20.884 98.3757 20.276V16.424H99.4557V20.132C99.4557 20.78 99.6197 21.28 99.9477 21.632C100.276 21.976 100.724 22.148 101.292 22.148C101.876 22.148 102.336 21.968 102.672 21.608C103.008 21.248 103.176 20.724 103.176 20.036V16.424H104.268ZM107.204 17.636C107.42 17.26 107.74 16.948 108.164 16.7C108.596 16.444 109.096 16.316 109.664 16.316C110.248 16.316 110.776 16.456 111.247 16.736C111.727 17.016 112.104 17.412 112.376 17.924C112.648 18.428 112.784 19.016 112.784 19.688C112.784 20.352 112.648 20.944 112.376 21.464C112.104 21.984 111.727 22.388 111.247 22.676C110.776 22.964 110.248 23.108 109.664 23.108C109.104 23.108 108.608 22.984 108.176 22.736C107.752 22.48 107.428 22.164 107.204 21.788V26.12H106.112V16.424H107.204V17.636ZM111.668 19.688C111.668 19.192 111.568 18.76 111.368 18.392C111.168 18.024 110.896 17.744 110.552 17.552C110.216 17.36 109.844 17.264 109.436 17.264C109.036 17.264 108.664 17.364 108.32 17.564C107.984 17.756 107.712 18.04 107.504 18.416C107.304 18.784 107.204 19.212 107.204 19.7C107.204 20.196 107.304 20.632 107.504 21.008C107.712 21.376 107.984 21.66 108.32 21.86C108.664 22.052 109.036 22.148 109.436 22.148C109.844 22.148 110.216 22.052 110.552 21.86C110.896 21.66 111.168 21.376 111.368 21.008C111.568 20.632 111.668 20.192 111.668 19.688ZM115.313 17.636C115.529 17.26 115.849 16.948 116.273 16.7C116.705 16.444 117.205 16.316 117.773 16.316C118.357 16.316 118.885 16.456 119.357 16.736C119.837 17.016 120.213 17.412 120.485 17.924C120.757 18.428 120.893 19.016 120.893 19.688C120.893 20.352 120.757 20.944 120.485 21.464C120.213 21.984 119.837 22.388 119.357 22.676C118.885 22.964 118.357 23.108 117.773 23.108C117.213 23.108 116.717 22.984 116.285 22.736C115.861 22.48 115.537 22.164 115.313 21.788V26.12H114.221V16.424H115.313V17.636ZM119.777 19.688C119.777 19.192 119.677 18.76 119.477 18.392C119.277 18.024 119.005 17.744 118.661 17.552C118.325 17.36 117.953 17.264 117.545 17.264C117.145 17.264 116.773 17.364 116.429 17.564C116.093 17.756 115.821 18.04 115.613 18.416C115.413 18.784 115.313 19.212 115.313 19.7C115.313 20.196 115.413 20.632 115.613 21.008C115.821 21.376 116.093 21.66 116.429 21.86C116.773 22.052 117.145 22.148 117.545 22.148C117.953 22.148 118.325 22.052 118.661 21.86C119.005 21.66 119.277 21.376 119.477 21.008C119.677 20.632 119.777 20.192 119.777 19.688ZM123.422 14.12V23H122.33V14.12H123.422ZM130.947 16.424L126.987 26.096H125.859L127.155 22.928L124.503 16.424H125.715L127.779 21.752L129.819 16.424H130.947Z" fill="#C95E60"/>
<path d="M152 9C146.486 9 142 13.486 142 19C142 24.514 146.486 29 152 29C157.514 29 162 24.514 162 19C162 13.486 157.514 9 152 9ZM144 19C144 18.101 144.156 17.238 144.431 16.431L146 18L148 20V22L150 24L151 25V26.931C147.061 26.436 144 23.072 144 19ZM158.33 23.873C157.677 23.347 156.687 23 156 23V22C156 21.4696 155.789 20.9609 155.414 20.5858C155.039 20.2107 154.53 20 154 20H150V17C150.53 17 151.039 16.7893 151.414 16.4142C151.789 16.0391 152 15.5304 152 15V14H153C153.53 14 154.039 13.7893 154.414 13.4142C154.789 13.0391 155 12.5304 155 12V11.589C157.928 12.778 160 15.65 160 19C160 20.7647 159.412 22.4791 158.33 23.873Z" fill="#C95E60"/>
</svg>
